<svg xmlns="http://www.w3.org/2000/svg" width="21.801" height="27.558"><g data-name="Group 57579"><path d="M0 27.558h19.453V0H0v27.558ZM1.621 1.62h16.21v24.316H1.622V1.62Z" fill="#797f96" fill-rule="evenodd" data-name="Path 24654"/><path d="M8.916 16.21v-1.62h2.431v-1.622H8.916v-1.76a2.436 2.436 0 0 0 1.62-2.292c0-1.341-1.09-2.432-2.43-2.432a2.434 2.434 0 0 0-2.432 2.432c0 1.056.677 1.957 1.62 2.292v1.018a4.87 4.87 0 0 0-4.052 4.795 4.869 4.869 0 0 0 4.863 4.863 4.87 4.87 0 0 0 4.436-2.87l.443 2.219 1.59-.318-.941-4.704H8.916Zm-.81-8.105a.811.811 0 0 1 0 1.621.811.811 0 0 1 0-1.62Zm0 12.158a3.246 3.246 0 0 1-3.243-3.242 3.248 3.248 0 0 1 2.432-3.14v3.95h3.95a3.248 3.248 0 0 1-3.14 2.432Z" fill="#797f96" fill-rule="evenodd" data-name="Path 24655"/><path d="M8.916 3.242h1.62v1.621h-1.62v-1.62Z" fill="#797f96" fill-rule="evenodd" data-name="Path 24656"/><path d="m20.599 10.873-1.146 1.146c.97.97.97 2.55 0 3.52l1.146 1.146a4.115 4.115 0 0 0 0-5.812Z" fill="#797f96" fill-rule="evenodd" data-name="Path 24657"/><path d="M16.758 10.873a4.115 4.115 0 0 0 0 5.812l1.146-1.146c-.97-.97-.97-2.55 0-3.52l-1.146-1.146Z" fill="#797f96" fill-rule="evenodd" data-name="Path 24658"/></g></svg>