<svg xmlns="http://www.w3.org/2000/svg" width="26.021" height="26.021"><g data-name="Group 57572"><g data-name="Group 57573"><g data-name="Group 57572"><path d="M14.309 6.314H9.656v13.394h1.525v-4.246h3.128a4.5 4.5 0 0 0 4.496-4.496v-.157a4.5 4.5 0 0 0-4.496-4.495Zm2.97 4.652a2.974 2.974 0 0 1-2.97 2.971H11.18V7.838h3.128a2.974 2.974 0 0 1 2.97 2.972v.156Z" fill="#797f96" fill-rule="evenodd" data-name="Path 24649"/></g></g><g data-name="Group 57575"><g data-name="Group 57574"><path d="M22.21 3.81A12.926 12.926 0 0 0 13.01 0a12.926 12.926 0 0 0-9.2 3.81A12.926 12.926 0 0 0 0 13.01c0 3.476 1.353 6.743 3.81 9.2a12.926 12.926 0 0 0 9.2 3.811c3.476 0 6.743-1.353 9.2-3.81a12.926 12.926 0 0 0 3.811-9.2c0-3.475-1.353-6.743-3.81-9.2Zm-1.077 17.323a11.411 11.411 0 0 1-8.122 3.364 11.41 11.41 0 0 1-8.122-3.364 11.41 11.41 0 0 1-3.364-8.122c0-3.068 1.194-5.953 3.364-8.122a11.41 11.41 0 0 1 8.122-3.364c3.068 0 5.952 1.194 8.122 3.364a11.411 11.411 0 0 1 3.364 8.122c0 3.068-1.195 5.952-3.364 8.122Z" fill="#797f96" fill-rule="evenodd" data-name="Path 24650"/></g></g></g></svg>