<svg xmlns="http://www.w3.org/2000/svg" width="26.022" height="20.14"><g data-name="Group 57473"><path d="M16.535 13.597 13.16 8.594l-4.617 1.44a5.038 5.038 0 0 0-.14-.09l-1.647-5.28c.63-.71.886-1.719.582-2.697A2.798 2.798 0 0 0 3.83.127a2.798 2.798 0 0 0-.89 4.878L.256 7.19l1.168 3.747A5.52 5.52 0 0 0 .2 13.164a5.49 5.49 0 0 0 .052 3.106 5.517 5.517 0 0 0 5.105 3.866v.004h20.666V8.995l-9.487 4.602Zm-1.387.673-1.01.489-2.132-2.961-1.52.474a5.505 5.505 0 0 0-.646-1.043l2.689-.839 2.619 3.88Zm-4.206-.541.468-.146 1.334 1.852-2.028.984c.291-.845.38-1.767.226-2.69ZM4.285 1.586a1.272 1.272 0 1 1 .758 2.43h-.001a1.272 1.272 0 1 1-.757-2.43Zm.057 4.248 1.074-.335L6.58 9.227a5.491 5.491 0 0 0-1.276-.1L5.015 8.2l-1.458.455 1.06 3.401a.594.594 0 1 1-1.133.354L2.02 7.721l2.32-1.887Zm-2.633 9.982a4 4 0 0 1 .286-3.05c.024.045.18.88 1.07 1.346a2.12 2.12 0 0 0 3.01-2.51l-.294-.944a4.005 4.005 0 0 1 3.528 2.787 3.985 3.985 0 0 1-2.615 4.986 3.985 3.985 0 0 1-4.985-2.615Zm22.786 2.797H9.693l14.802-7.18v7.18Z" fill="#797f96" fill-rule="evenodd" data-name="Path 24486"/></g></svg>