<svg xmlns="http://www.w3.org/2000/svg" width="28.667" height="28.667" viewBox="22.667 54.667 28.667 28.667"><g data-name="vuesax/outline/profile-circle"><g data-name="profile-circle"><path d="M37.16 71.04h-.227c-3.026-.093-5.293-2.453-5.293-5.36a5.383 5.383 0 0 1 5.373-5.373 5.383 5.383 0 0 1 5.374 5.373c-.014 2.92-2.294 5.267-5.187 5.36h-.04ZM37 62.293a3.377 3.377 0 0 0-3.373 3.374 3.36 3.36 0 0 0 3.24 3.373 1.12 1.12 0 0 1 .306 0 3.38 3.38 0 0 0 3.2-3.373A3.377 3.377 0 0 0 37 62.293ZM37 83.333a14.28 14.28 0 0 1-9.667-3.76 1.007 1.007 0 0 1-.32-.84c.174-1.586 1.16-3.066 2.8-4.16 3.974-2.64 10.414-2.64 14.374 0 1.64 1.107 2.626 2.574 2.8 4.16.04.32-.08.627-.32.84A14.28 14.28 0 0 1 37 83.333Zm-7.893-4.866c2.213 1.853 5 2.866 7.893 2.866s5.68-1.013 7.893-2.866c-.24-.814-.88-1.6-1.826-2.24-3.28-2.187-8.84-2.187-12.147 0-.947.64-1.573 1.426-1.813 2.24Z" fill="#da035f" fill-rule="evenodd" data-name="Vector"/><path d="M37 83.333c-7.907 0-14.333-6.426-14.333-14.333S29.093 54.667 37 54.667 51.333 61.093 51.333 69 44.907 83.333 37 83.333Zm0-26.666c-6.8 0-12.333 5.533-12.333 12.333S30.2 81.333 37 81.333 49.333 75.8 49.333 69 43.8 56.667 37 56.667Z" fill="#da035f" fill-rule="evenodd" data-name="Vector"/></g></g></svg>