<svg xmlns="http://www.w3.org/2000/svg" width="25.988" height="25.988"><g data-name="Group 57478"><g data-name="Group 57477"><path d="M0 0v25.988h25.988V0H0Zm1.529 24.46V4.585h6.115V3.057H1.529V1.53h22.93v19.873H17.58v1.529h6.88v1.528H1.528Z" fill="#797f96" fill-rule="evenodd" data-name="Path 24488"/><path d="M8.408 17.58v-1.528H10.7v-1.53H8.408v-1.66a2.297 2.297 0 0 0 1.529-2.161 2.296 2.296 0 0 0-2.293-2.293A2.296 2.296 0 0 0 5.35 10.7c0 .996.64 1.846 1.53 2.162v.96a4.593 4.593 0 0 0-3.823 4.522 4.591 4.591 0 0 0 4.587 4.586 4.593 4.593 0 0 0 4.182-2.706l.419 2.091 1.499-.3-.888-4.436H8.408Zm-.764-7.643a.765.765 0 0 1 0 1.528.765.765 0 0 1 0-1.528Zm0 11.465a3.06 3.06 0 0 1-3.058-3.057c0-1.422.976-2.62 2.293-2.961v3.725h3.725a3.063 3.063 0 0 1-2.96 2.293Z" fill="#797f96" fill-rule="evenodd" data-name="Path 24489"/><path d="M17.969 8.408c.58 0 1.085-.414 1.199-.983l.323-1.617.323 1.617c.114.57.619.983 1.2.983.6 0 1.107-.43 1.206-1.022l.7-4.203-1.508-.251-.426 2.557-.288-1.442a1.234 1.234 0 0 0-1.207-.99c-.585 0-1.092.416-1.207.99l-.288 1.442-.426-2.557-1.508.251.7 4.203a1.22 1.22 0 0 0 1.207 1.022Z" fill="#797f96" fill-rule="evenodd" data-name="Path 24490"/><path d="M19.49 15.236h1.912v-1.528H19.49a1.148 1.148 0 0 1 0-2.294h1.91V9.886h-1.91a2.678 2.678 0 0 0-2.675 2.675c0 1.475 1.2 2.675 2.675 2.675Z" fill="#797f96" fill-rule="evenodd" data-name="Path 24491"/></g></g></svg>